<svg width="1440" height="1183" viewBox="0 0 1440 1183" fill="none" xmlns="http://www.w3.org/2000/svg">
<path d="M742.773 7.5L745 8.63745C695.095 90.5476 633.68 144.169 562.341 171.937C498.933 196.617 428.6 200.528 353.092 186.224C288.258 173.943 221.059 148.509 153.722 112.752C99.4374 83.9268 47.1652 49.4635 1.38528 13.8312L0 12.751L1.65513 10.9747C47.6528 46.9031 100.309 81.6904 155.001 110.733C222.117 146.372 289.069 171.712 353.609 183.938C428.637 198.151 498.448 194.269 561.344 169.788C631.427 142.509 691.911 90.0393 741.28 9.93584L742.773 7.5Z" fill="#B9B3B8"/>
<path d="M368 7.5C434.696 32.7864 525.861 63.4476 598.963 84.9757C690.517 111.938 781.512 133.567 870.582 148.501C974.402 165.909 1072.96 173.756 1164.69 170.627C1266.73 167.146 1358.86 150.122 1439.53 118.174L1446 114.5L1443 119.278C1361.43 151.98 1268.16 169.373 1164.79 172.9C1072.85 176.036 974.112 168.174 870.118 150.737C780.93 135.783 689.829 114.129 598.174 87.1369C526.032 65.8916 456.886 42.3541 390.977 17.4402L388.154 16.3716L368 7.5Z" fill="#B9B3B8"/>
<path d="M1356.56 5V11.619C1344.69 30.4883 1332.64 48.0118 1318.86 65.7624C1301.1 88.6317 1281.97 109.814 1261.16 128.959C1208.82 177.124 1149.72 209.019 1083.07 219.69C1047.85 225.329 1011.7 220.942 975.783 207.661C943.511 195.729 912.018 176.803 883.149 152.755C831.53 109.757 792.213 52.9438 785.39 14.3758L785.39 0L787.699 12.8864C793.832 50.8888 833.12 107.979 884.87 151.087C913.529 174.96 944.772 193.736 976.746 205.558C1012.24 218.682 1047.91 223.01 1082.63 217.451C1148.7 206.872 1207.35 175.22 1259.35 127.371C1280.05 108.32 1299.1 87.2335 1316.78 64.4612C1330.16 47.229 1341.9 30.2069 1353.44 11.9444L1356.56 5Z" fill="#B9B3B8"/>
<path d="M15.2145 46.8811C21.157 46.8811 25.9744 42.5534 25.9744 37.215C25.9744 31.8765 21.157 27.5488 15.2145 27.5488C9.27196 27.5488 4.45459 31.8765 4.45459 37.215C4.45459 42.5534 9.27196 46.8811 15.2145 46.8811Z" fill="#DE1E32"/>
<path d="M112.686 109.995C118.629 109.995 123.446 105.667 123.446 100.329C123.446 94.9903 118.629 90.6626 112.686 90.6626C106.744 90.6626 101.927 94.9903 101.927 100.329C101.927 105.667 106.744 109.995 112.686 109.995Z" fill="#016592"/>
<path d="M229.147 167.424C235.089 167.424 239.907 163.096 239.907 157.757C239.907 152.419 235.089 148.091 229.147 148.091C223.204 148.091 218.387 152.419 218.387 157.757C218.387 163.096 223.204 167.424 229.147 167.424Z" fill="#FFC74E"/>
<path d="M360.164 206.656C366.107 206.656 370.924 202.328 370.924 196.99C370.924 191.651 366.107 187.324 360.164 187.324C354.222 187.324 349.404 191.651 349.404 196.99C349.404 202.328 354.222 206.656 360.164 206.656Z" fill="#DE1E32"/>
<path d="M518.398 201.539C524.341 201.539 529.158 197.211 529.158 191.873C529.158 186.534 524.341 182.207 518.398 182.207C512.456 182.207 507.638 186.534 507.638 191.873C507.638 197.211 512.456 201.539 518.398 201.539Z" fill="#016592"/>
<path d="M641.821 148.091C647.763 148.091 652.58 143.763 652.58 138.425C652.58 133.086 647.763 128.759 641.821 128.759C635.878 128.759 631.061 133.086 631.061 138.425C631.061 143.763 635.878 148.091 641.821 148.091Z" fill="#FFC74E"/>
<path d="M741.192 41.7639C747.134 41.7639 751.951 37.4362 751.951 32.0978C751.951 26.7593 747.134 22.4316 741.192 22.4316C735.249 22.4316 730.432 26.7593 730.432 32.0978C730.432 37.4362 735.249 41.7639 741.192 41.7639Z" fill="#DE1E32"/>
<path d="M396.242 37.2146C402.184 37.2146 407.001 32.8869 407.001 27.5484C407.001 22.21 402.184 17.8823 396.242 17.8823C390.299 17.8823 385.482 22.21 385.482 27.5484C385.482 32.8869 390.299 37.2146 396.242 37.2146Z" fill="#FFC74E"/>
<path d="M567.134 95.2116C573.077 95.2116 577.894 90.884 577.894 85.5455C577.894 80.2071 573.077 75.8794 567.134 75.8794C561.192 75.8794 556.374 80.2071 556.374 85.5455C556.374 90.884 561.192 95.2116 567.134 95.2116Z" fill="#DE1E32"/>
<path d="M757.648 145.817C763.59 145.817 768.408 141.489 768.408 136.15C768.408 130.812 763.59 126.484 757.648 126.484C751.705 126.484 746.888 130.812 746.888 136.15C746.888 141.489 751.705 145.817 757.648 145.817Z" fill="#016592"/>
<path d="M796.89 75.8796C802.832 75.8796 807.65 71.5519 807.65 66.2135C807.65 60.875 802.832 56.5474 796.89 56.5474C790.947 56.5474 786.13 60.875 786.13 66.2135C786.13 71.5519 790.947 75.8796 796.89 75.8796Z" fill="#FFC74E"/>
<path d="M882.969 172.541C888.911 172.541 893.729 168.213 893.729 162.875C893.729 157.536 888.911 153.208 882.969 153.208C877.026 153.208 872.209 157.536 872.209 162.875C872.209 168.213 877.026 172.541 882.969 172.541Z" fill="#DE1E32"/>
<path d="M1038.04 239.635C1043.98 239.635 1048.8 235.307 1048.8 229.969C1048.8 224.63 1043.98 220.303 1038.04 220.303C1032.1 220.303 1027.28 224.63 1027.28 229.969C1027.28 235.307 1032.1 239.635 1038.04 239.635Z" fill="#016592"/>
<path d="M1205.77 191.873C1211.71 191.873 1216.53 187.546 1216.53 182.207C1216.53 176.869 1211.71 172.541 1205.77 172.541C1199.82 172.541 1195.01 176.869 1195.01 182.207C1195.01 187.546 1199.82 191.873 1205.77 191.873Z" fill="#FFC74E"/>
<path d="M1307.67 104.878C1313.61 104.878 1318.43 100.55 1318.43 95.2115C1318.43 89.8731 1313.61 85.5454 1307.67 85.5454C1301.73 85.5454 1296.91 89.8731 1296.91 95.2115C1296.91 100.55 1301.73 104.878 1307.67 104.878Z" fill="#DE1E32"/>
<path d="M953.225 178.226C959.167 178.226 963.985 173.899 963.985 168.56C963.985 163.222 959.167 158.894 953.225 158.894C947.282 158.894 942.465 163.222 942.465 168.56C942.465 173.899 947.282 178.226 953.225 178.226Z" fill="#FFC74E"/>
<path d="M1126.02 191.873C1131.96 191.873 1136.78 187.546 1136.78 182.207C1136.78 176.869 1131.96 172.541 1126.02 172.541C1120.07 172.541 1115.26 176.869 1115.26 182.207C1115.26 187.546 1120.07 191.873 1126.02 191.873Z" fill="#DE1E32"/>
<path d="M1296.91 178.226C1302.85 178.226 1307.67 173.899 1307.67 168.56C1307.67 163.222 1302.85 158.894 1296.91 158.894C1290.97 158.894 1286.15 163.222 1286.15 168.56C1286.15 173.899 1290.97 178.226 1296.91 178.226Z" fill="#016592"/>
<path d="M1426.03 145.817C1431.97 145.817 1436.79 141.489 1436.79 136.15C1436.79 130.812 1431.97 126.484 1426.03 126.484C1420.08 126.484 1415.27 130.812 1415.27 136.15C1415.27 141.489 1420.08 145.817 1426.03 145.817Z" fill="#FFC74E"/>
<path d="M1210.76 1089.4C1204.82 1089.4 1200 1085.08 1200 1079.74C1200 1074.4 1204.82 1070.07 1210.76 1070.07C1216.7 1070.07 1221.52 1074.4 1221.52 1079.74C1221.52 1085.08 1216.7 1089.4 1210.76 1089.4Z" fill="#DE1E32"/>
<path d="M1441.66 1008.5C1350.67 1034.2 1255.14 1058.48 1155.42 1080.36C1030.52 1107.76 906.389 1129.74 784.881 1144.92C643.252 1162.61 508.806 1170.59 383.664 1167.41C244.467 1163.87 118.785 1146.57 8.73743 1114.1L5.40771 1113.11L4 1115.22C115.271 1148.46 242.513 1166.13 383.532 1169.72C508.951 1172.9 643.648 1164.91 785.515 1147.19C907.182 1131.99 1031.46 1109.99 1156.49 1082.55C1254.91 1060.96 1349.24 1037.04 1439.15 1011.72L1443 1010.63L1441.66 1008.5Z" fill="#B9B3B8"/>
<path d="M1397.76 1042.36C1391.82 1042.36 1387 1038.03 1387 1032.7C1387 1027.36 1391.82 1023.03 1397.76 1023.03C1403.7 1023.03 1408.52 1027.36 1408.52 1032.7C1408.52 1038.03 1403.7 1042.36 1397.76 1042.36Z" fill="#FFC74E"/>
<path d="M1065.76 1120.54C1059.82 1120.54 1055 1116.21 1055 1110.87C1055 1105.53 1059.82 1101.21 1065.76 1101.21C1071.7 1101.21 1076.52 1105.53 1076.52 1110.87C1076.52 1116.21 1071.7 1120.54 1065.76 1120.54Z" fill="#016592"/>
<path d="M937.76 1143.37C931.817 1143.37 927 1139.04 927 1133.71C927 1128.37 931.817 1124.04 937.76 1124.04C943.702 1124.04 948.52 1128.37 948.52 1133.71C948.52 1139.04 943.702 1143.37 937.76 1143.37Z" fill="#DE1E32"/>
<path d="M747.76 1170.36C741.817 1170.36 737 1166.03 737 1160.69C737 1155.35 741.817 1151.02 747.76 1151.02C753.702 1151.02 758.52 1155.35 758.52 1160.69C758.52 1166.03 753.702 1170.36 747.76 1170.36Z" fill="#FFC74E"/>
<path d="M300.76 1182.47C294.817 1182.47 290 1178.14 290 1172.8C290 1167.47 294.817 1163.14 300.76 1163.14C306.702 1163.14 311.52 1167.47 311.52 1172.8C311.52 1178.14 306.702 1182.47 300.76 1182.47Z" fill="#016592"/>
<path d="M126.76 1162.75C120.817 1162.75 116 1158.42 116 1153.09C116 1147.75 120.817 1143.42 126.76 1143.42C132.702 1143.42 137.52 1147.75 137.52 1153.09C137.52 1158.42 132.702 1162.75 126.76 1162.75Z" fill="#FFC74E"/>
</svg>
