<svg width="84" height="75" viewBox="0 0 84 75" fill="none" xmlns="http://www.w3.org/2000/svg">
<path fill-rule="evenodd" clip-rule="evenodd" d="M68.3858 52.7936C68.3858 52.6578 67.9079 52.328 67.582 51.8027C65.8441 52.5394 64.6643 53.0177 64.0428 53.2375C64.1912 54.1433 64.3198 54.9494 64.4248 55.6578C64.4654 56.5675 64.4047 57.4789 64.2437 58.3751C64.1822 58.7375 64.079 58.9078 63.9287 58.9078C63.7477 58.9078 63.4599 58.7393 63.0598 58.3951C62.6597 58.0509 62.428 57.8009 62.3718 57.6378C61.8939 56.4367 61.6586 54.627 61.6586 52.2193C61.6586 50.0581 61.7907 48.5962 62.0659 47.828C62.428 47.8027 63.0978 47.7882 64.1098 47.7882C64.4977 47.7811 64.8851 47.7539 65.2702 47.7067C65.7717 47.6487 66.4687 47.6233 66.742 47.6233L67.4806 47.8208V43.1161C67.1825 42.7538 66.6243 42.5454 65.8061 42.4911C64.5841 42.4385 63.6047 42.3552 63.4164 42.2429V38.0001C63.0399 37.5327 62.2198 37.2954 60.9598 37.2954C60.6665 37.2954 60.4004 37.4766 59.812 37.3788C59.3721 37.309 58.9283 37.2666 58.4832 37.252H57.3228C57.4024 38.9023 57.4024 40.04 57.3228 40.6741V42.0291C57.3127 42.1478 57.2746 42.2624 57.2116 42.3634C57.1487 42.4645 57.0627 42.5492 56.9607 42.6106C56.5924 42.8528 56.1983 43.0533 55.7858 43.2085C55.1323 43.4693 54.7141 43.5962 54.5276 43.5962C54.479 43.5919 54.4317 43.5783 54.3882 43.5563C54.3447 43.5351 54.2984 43.5205 54.2506 43.5128C53.8839 43.5373 53.5225 43.6136 53.1771 43.7393C52.6992 43.8914 52.4439 44.0491 52.4204 44.2121C52.0456 46.2791 51.8628 47.3407 51.8628 47.3987C51.8628 47.6759 52.1036 47.8135 52.5869 47.8135C52.8172 47.8046 53.0459 47.7718 53.2694 47.7157C53.5627 47.6523 53.3527 47.6161 53.5138 47.6161C53.7399 47.606 53.9638 47.664 54.1565 47.7828V51.5726C53.827 54.1088 53.6677 55.6922 53.6677 56.348C53.6677 57.8081 53.9012 59.1378 54.4679 60.3443C54.9567 61.3607 55.7224 62.1559 56.7797 62.8498C57.7366 63.5178 58.8717 63.8832 60.0383 63.8987H63.0761C63.2571 63.8987 64.0265 63.7067 65.3517 63.3208C66.1048 62.3878 66.6479 61.7683 67.0824 61.328C67.9996 59.2966 68.4323 57.9361 68.3804 57.2465L68.3858 52.7936Z" fill="#39363C"/>
<path fill-rule="evenodd" clip-rule="evenodd" d="M24.1699 41.6666C23.3372 42.4528 22.7778 42.8985 22.4881 43.009C21.4726 43.4354 20.385 43.6636 19.2838 43.6811C19.1681 43.6891 19.0539 43.711 18.9435 43.7463C18.833 43.7811 18.7187 43.8018 18.6031 43.8079C18.4852 43.7761 18.3631 43.7626 18.241 43.768C18.1217 43.7916 18.0006 43.8049 17.879 43.8079H17.5169C17.4626 43.8079 17.3793 43.5597 17.2725 43.0543L17.0335 42.0035C16.9901 41.9468 16.9901 40.3797 17.0335 37.3025C17.8892 37.2469 19.3574 37.2469 21.4381 37.3025C22.237 37.3419 22.9962 37.6628 23.5816 38.2082C24.2333 38.7861 24.5628 39.4637 24.5628 40.2445C24.5628 40.9474 24.4306 41.4238 24.1627 41.6702L24.1699 41.6666ZM34.1956 38.1793C33.9295 37.1195 33.6634 36.3876 33.3972 35.9709C32.8324 35.1213 31.9888 34.4727 30.8628 34.0307C30.5695 33.922 29.5261 33.6201 27.7327 33.1249C25.4034 32.4921 22.7422 32.175 19.7491 32.1738C13.4599 32.1738 9.91587 32.2698 9.1169 32.4619C8.87111 32.5214 8.64786 32.6511 8.47423 32.8351C8.15319 36.0657 7.99268 37.8773 7.99268 38.2698C7.99268 38.7952 8.32397 39.0561 8.99561 39.0561C9.26263 39.0442 9.52687 38.9967 9.7813 38.9148C10.0339 38.8325 10.2962 38.7837 10.5616 38.7698C10.9948 38.7779 11.4259 38.8338 11.8469 38.9365C11.7775 39.4515 11.7497 39.9713 11.7636 40.4909C11.7636 41.201 11.4595 41.884 11.4559 42.538C11.5766 45.5983 11.7437 48.2318 11.9573 50.4383V53.4419C9.54233 54.48 8.53397 55.268 8.53397 55.8151C8.53397 56.0054 8.65707 56.2988 8.715 56.6956C8.76164 56.9863 8.78946 57.2798 8.79828 57.5742C8.79828 58.48 8.8363 58.9818 8.91957 59.0887C10.7118 59.0398 12.8444 58.8622 16.342 58.5561C19.8396 58.2499 22.4374 58.0869 24.15 58.0615V55.8803C24.111 55.0773 24.165 54.2724 24.3111 53.4818C24.0016 53.3006 24.1301 53.1974 23.768 53.1974C23.512 53.2075 23.2569 53.2336 23.0041 53.2753C22.7451 53.3158 22.4839 53.34 22.222 53.3477C22.041 53.3477 21.7368 53.3677 21.3168 53.4057C20.8968 53.4438 20.5927 53.4564 20.3917 53.4564C20.1165 53.4701 19.8405 53.4561 19.568 53.4148C19.3158 53.1092 19.1897 52.4758 19.1897 51.5144V49.7825C22.155 49.2076 23.8447 48.8628 24.2586 48.7481C25.4252 48.4537 26.5668 48.0678 27.6729 47.5941C28.1629 47.3767 29.2244 46.8828 30.8573 46.1122C31.917 45.2849 32.5838 44.7753 32.8578 44.5832C33.4868 44.0175 33.9171 43.2642 34.0852 42.4347C34.1087 42.326 34.201 42.0253 34.3676 41.5289C34.4813 41.2365 34.5638 40.9329 34.6138 40.6231C34.6138 40.047 34.4786 39.2294 34.2083 38.1702" fill="#39363C"/>
<path fill-rule="evenodd" clip-rule="evenodd" d="M38.6653 49.4475H38.3484C38.1674 48.933 38.0696 48.683 38.0696 48.4892C38.0586 47.4975 38.334 46.5237 38.8626 45.6848C39.466 44.709 40.2469 44.2211 41.2052 44.2211C41.9673 44.2211 42.3294 44.5326 43.0046 45.1576C43.6799 45.7826 44.0148 46.4855 44.0148 47.27V47.6993C41.5835 48.433 39.67 49.0127 38.305 49.4475H38.6653ZM50.8706 54.7591C50.2859 53.6721 49.8966 53.1178 49.7102 53.1178L47.3821 54.5671C45.8306 55.5381 44.4638 56.0163 43.2889 56.0163C42.6951 56.0163 42.0723 55.7519 41.417 55.2138C40.7616 54.6758 40.3434 54.1269 40.1497 53.5453L40.3109 53.375C41.1109 53.3401 41.9048 53.2186 42.6788 53.0127C43.4532 52.8046 44.2476 52.6801 45.0485 52.6413C47.1843 52.6672 49.3189 52.5291 51.4336 52.2283C51.6436 52.2048 51.754 51.6957 51.754 50.7011C51.7458 49.003 51.4621 47.3174 50.914 45.7102C50.1609 43.4566 49.0518 41.9276 47.5866 41.1232C45.7123 40.1039 44.0118 39.5942 42.4851 39.5942C35.5237 39.5942 32.0442 43.7609 32.0466 52.0942C32.0466 55.0918 33.4255 57.6824 36.1833 59.866C36.815 60.3272 37.5023 60.707 38.229 60.9964C39.2174 61.4276 39.9651 61.5906 40.4774 61.5906C41.8152 61.5906 42.8182 61.6794 43.4898 61.8479H44.0546C45.1191 61.8479 46.5276 61.3424 48.2691 60.3352C48.9783 59.8745 49.6377 59.3414 50.237 58.7446C51.252 57.7615 51.7601 57.1154 51.7613 56.8062C51.7613 56.5272 51.4644 55.8424 50.876 54.7428" fill="#39363C"/>
<path fill-rule="evenodd" clip-rule="evenodd" d="M32.7201 12.5815C34.7532 11.1975 36.4458 11.9384 37.1428 13.125C37.8398 14.3116 40.9174 21.2572 38.7124 22.7681C35.8448 24.7246 31.366 18.8406 31.2737 17.1178C31.1813 15.3949 31.1614 13.6395 32.7219 12.5888" fill="#FEAC29"/>
<path fill-rule="evenodd" clip-rule="evenodd" d="M41.9511 4.54153C43.727 3.3332 45.9646 3.75167 46.7485 5.15928C47.5324 6.56689 48.5588 8.76254 47.6392 12.3567C46.7195 15.9509 45.2948 18.0089 44.3806 17.806C43.4663 17.6031 39.7931 12.3821 39.8656 10.1973C39.938 8.01254 40.1769 5.7408 41.9547 4.53428" fill="#FEAC29"/>
<path fill-rule="evenodd" clip-rule="evenodd" d="M55.7477 5.3965C58.3673 5.97802 58.599 9.36752 58.1229 11.594C57.6467 13.8204 54.4533 19.0758 51.6708 18.5324C48.8883 17.9889 49.8822 12.4816 50.7312 9.52694C51.5803 6.57223 54.1709 5.04505 55.7477 5.39107" fill="#FEAC29"/>
<path fill-rule="evenodd" clip-rule="evenodd" d="M64.1134 17.4621C65.348 19.5056 64.2709 21.9911 63.0996 23.281C61.9283 24.5708 56.8466 27.973 55.1521 25.5183C53.4577 23.0636 57.7065 18.3987 59.4191 17.1578C61.1317 15.9168 63.2951 16.107 64.1134 17.4621Z" fill="#FEAC29"/>
<path fill-rule="evenodd" clip-rule="evenodd" d="M47.5613 20.2899C49.9346 20.8134 50.7312 21.2862 51.1512 22.8587C51.5712 24.4312 52.1939 25.0906 53.6857 26.5344C55.1774 27.9783 56.2419 29.1848 55.3747 32.2754C54.5076 35.366 51.754 37.4638 49.4006 36.7862C47.0471 36.1087 46.8082 35.2337 44.7987 34.8605C42.7892 34.4873 42.2117 35.8605 39.7297 35.0815C37.2477 34.3025 35.2039 31.6721 35.7017 28.7935C36.1996 25.9149 36.3842 25.7391 38.2362 24.8877C40.0882 24.0362 41.9619 23.7102 43.0426 21.9493C44.1234 20.1884 45.1825 19.7627 47.5558 20.2899" fill="#FEAC29"/>
</svg>
