<svg width="22" height="21" viewBox="0 0 22 21" fill="none" xmlns="http://www.w3.org/2000/svg">
<path fill-rule="evenodd" clip-rule="evenodd" d="M11.3023 0.509766V16.4744L5.14574 19.764L6.32233 12.7971L1.34033 7.86432L8.22403 6.84832L11.3023 0.509766Z" fill="#FFD166"/>
<path fill-rule="evenodd" clip-rule="evenodd" d="M2.41332 8.2188L6.67018 12.435C6.78803 12.5517 6.84198 12.7192 6.81401 12.8836L5.80821 18.8365L11.0699 16.026C11.2147 15.9478 11.3895 15.9478 11.5343 16.026L16.794 18.8365L15.7902 12.8836C15.7622 12.7192 15.8161 12.5517 15.934 12.435L20.1899 8.2188L14.308 7.35098C14.1462 7.32662 14.0043 7.22308 13.9324 7.07286L11.3016 1.65695L8.67176 7.07286C8.59885 7.22308 8.45804 7.32662 8.29624 7.35098L2.41332 8.2188ZM5.14504 20.2716C5.04216 20.2716 4.93828 20.2392 4.85139 20.1742C4.69757 20.0605 4.62066 19.8687 4.65262 19.6789L5.78526 12.9749L0.992031 8.2279C0.855196 8.09291 0.80727 7.89094 0.8652 7.70824C0.924129 7.52352 1.08093 7.39055 1.26871 7.36213L7.89172 6.38473L10.8541 0.285732C11.0219 -0.0613899 11.5822 -0.0613899 11.75 0.285732L14.7115 6.38473L21.3345 7.36213C21.5223 7.39055 21.6791 7.52352 21.738 7.70824C21.7959 7.89094 21.747 8.09291 21.6112 8.2279L16.8189 12.9749L17.9506 19.6789C17.9825 19.8687 17.9056 20.0605 17.7508 20.1742C17.597 20.2889 17.3933 20.3031 17.2255 20.2128L11.3016 17.0491L5.37773 20.2128C5.30482 20.2523 5.22494 20.2716 5.14504 20.2716Z" fill="#FFD166"/>
</svg>
