<svg width="27" height="19" viewBox="0 0 27 19" fill="none" xmlns="http://www.w3.org/2000/svg">
<path d="M26.4439 2.97294C26.1325 1.81059 25.2206 0.894118 24.0641 0.581176C21.9513 0 13.4999 0 13.4999 0C13.4999 0 5.04858 0 2.93574 0.558824C1.80148 0.871765 0.867377 1.81059 0.556011 2.97294C0 5.09647 0 9.5 0 9.5C0 9.5 0 13.9259 0.556011 16.0271C0.867377 17.1894 1.77923 18.1059 2.93574 18.4188C5.07082 19 13.4999 19 13.4999 19C13.4999 19 21.9513 19 24.0641 18.4412C25.2206 18.1282 26.1325 17.2118 26.4439 16.0494C26.9999 13.9259 26.9999 9.52235 26.9999 9.52235C26.9999 9.52235 27.0221 5.09647 26.4439 2.97294Z" fill="#FF0000"/>
<path d="M17.8368 9.49988L10.8088 5.43164V13.5681L17.8368 9.49988Z" fill="white"/>
</svg>
